<?xml version="1.0" encoding="utf-8"?>
<!-- Generator: Adobe Illustrator 20.0.0, SVG Export Plug-In . SVG Version: 6.00 Build 0)  -->
<svg version="1.1" id="Layer_1" xmlns="http://www.w3.org/2000/svg" xmlns:xlink="http://www.w3.org/1999/xlink" x="0px" y="0px"
	 viewBox="0 0 24 24" style="enable-background:new 0 0 24 24;" xml:space="preserve">
<style type="text/css">
	.st0{fill:#049FD9;}
</style>
<title>mitigation</title>
<g>
	<path class="st0" d="M12,0L0,4c0,0,0.4,5.5,4.5,11.8l1.2,1.7c1.1,1.4,2.3,2.9,3.8,4.3c0.1,0.1,0.2,0.2,0.3,0.3
		c0.1,0.1,0.3,0.3,0.4,0.4c0.2,0.1,0.3,0.3,0.5,0.4c0.1,0.1,0.2,0.2,0.3,0.3c0.3,0.3,0.6,0.5,0.9,0.8c0.3-0.3,0.6-0.5,0.9-0.8
		c0.3-0.2,0.5-0.4,0.7-0.6c0,0,0.1-0.1,0.1-0.1C23.3,13.8,24,4,24,4L12,0z M11,14l-3.7-3.7c-0.4-0.4-0.4-1,0-1.4
		c0.4-0.4,1-0.4,1.4,0l2.3,2.3l4.8-4.8c0.4-0.4,1-0.4,1.4,0c0.4,0.4,0.4,1,0,1.4L11,14z"/>
</g>
</svg>
